<svg width="329" height="333" viewBox="0 0 329 333" fill="none" xmlns="http://www.w3.org/2000/svg">
<mask id="mask0_260374_4853" style="mask-type:luminance" maskUnits="userSpaceOnUse" x="0" y="11" width="323" height="322">
<path d="M0.890625 11.6562H322.198V332.964H0.890625V11.6562Z" fill="white"/>
</mask>
<g mask="url(#mask0_260374_4853)">
<path d="M312.995 165.698L168.359 21.0625C162.49 15.276 154.453 11.6562 145.609 11.6562H33.0521C15.2865 11.6562 0.890625 26.0469 0.890625 43.8177V156.375C0.890625 165.297 4.51042 173.339 10.3802 179.125L155.094 323.839C160.88 329.625 168.922 333.245 177.766 333.245C186.609 333.245 194.729 329.625 200.516 323.839L313.073 211.281C318.865 205.417 322.479 197.375 322.479 188.531C322.479 179.609 318.865 171.568 312.995 165.698ZM57.1719 92.0573C43.8229 92.0573 33.0521 81.2812 33.0521 67.9375C33.0521 54.5885 43.8229 43.8177 57.1719 43.8177C70.5156 43.8177 81.2917 54.5885 81.2917 67.9375C81.2917 81.2812 70.5156 92.0573 57.1719 92.0573Z" fill="#373737"/>
</g>
<mask id="mask1_260374_4853" style="mask-type:luminance" maskUnits="userSpaceOnUse" x="7" y="0" width="322" height="322">
<path d="M7.29175 0.026001H328.594V321.333H7.29175V0.026001Z" fill="white"/>
</mask>
<g mask="url(#mask1_260374_4853)">
<path d="M319.391 154.068L174.755 9.43225C168.885 3.64579 160.849 0.026001 152.005 0.026001H39.448C21.6824 0.026001 7.29175 14.4166 7.29175 32.1875V144.74C7.29175 153.667 10.9063 161.703 16.7761 167.495L161.49 312.208C167.281 317.995 175.318 321.615 184.162 321.615C193.005 321.615 201.125 317.995 206.917 312.208L319.469 199.651C325.26 193.781 328.875 185.745 328.875 176.901C328.875 167.974 325.26 159.937 319.391 154.068ZM63.5678 80.4218C50.224 80.4218 39.448 69.651 39.448 56.3073C39.448 42.9583 50.224 32.1875 63.5678 32.1875C76.9115 32.1875 87.6876 42.9583 87.6876 56.3073C87.6876 69.651 76.9115 80.4218 63.5678 80.4218Z" fill="#CFE6E6"/>
</g>
<path d="M159.281 223.953H210.37" stroke="#373737" stroke-width="5.99" stroke-linecap="round"/>
<path d="M99.9677 181.73C99.9677 186.427 98.5771 190.058 95.801 192.625C93.0354 195.183 89.0979 196.459 83.9885 196.459H80.801V210.417H69.426V168.334H83.9885C89.3062 168.334 93.301 169.5 95.9677 171.834C98.6344 174.157 99.9677 177.454 99.9677 181.73ZM80.801 187.188H82.8635C84.5719 187.188 85.926 186.709 86.926 185.75C87.9364 184.792 88.4469 183.474 88.4469 181.792C88.4469 178.948 86.8739 177.521 83.7385 177.521H80.801V187.188Z" fill="#020207"/>
<path d="M128.691 210.417H103.712V168.334H128.691V177.459H115.087V184.084H127.691V193.209H115.087V201.146H128.691V210.417Z" fill="#020207"/>
<path d="M168.836 188.48C168.836 195.511 166.898 200.927 163.023 204.73C159.159 208.521 153.732 210.417 146.732 210.417H133.107V168.334H147.669C154.419 168.334 159.633 170.063 163.315 173.521C166.992 176.98 168.836 181.969 168.836 188.48ZM157.023 188.896C157.023 185.037 156.258 182.177 154.732 180.313C153.216 178.454 150.904 177.521 147.794 177.521H144.482V201.084H147.003C150.461 201.084 152.992 200.084 154.607 198.084C156.216 196.084 157.023 193.021 157.023 188.896Z" fill="#020207"/>
<path d="M173.406 210.417V168.334H184.844V210.417H173.406Z" fill="#020207"/>
<path d="M226.705 188.48C226.705 195.511 224.767 200.927 220.892 204.73C217.027 208.521 211.6 210.417 204.6 210.417H190.975V168.334H205.538C212.288 168.334 217.501 170.063 221.184 173.521C224.861 176.98 226.705 181.969 226.705 188.48ZM214.892 188.896C214.892 185.037 214.126 182.177 212.6 180.313C211.085 178.454 208.772 177.521 205.663 177.521H202.35V201.084H204.871C208.33 201.084 210.861 200.084 212.475 198.084C214.085 196.084 214.892 193.021 214.892 188.896Z" fill="#020207"/>
<path d="M270.65 189.313C270.65 196.396 268.91 201.787 265.442 205.48C261.968 209.162 256.884 211 250.192 211C243.593 211 238.53 209.146 235.004 205.438C231.489 201.73 229.733 196.344 229.733 189.271C229.733 182.271 231.483 176.927 234.983 173.23C238.483 169.537 243.572 167.688 250.254 167.688C256.947 167.688 262.015 169.521 265.463 173.188C268.921 176.844 270.65 182.219 270.65 189.313ZM241.692 189.313C241.692 197.453 244.525 201.521 250.192 201.521C253.067 201.521 255.197 200.537 256.588 198.563C257.973 196.594 258.671 193.511 258.671 189.313C258.671 185.12 257.963 182.021 256.546 180.021C255.14 178.011 253.046 177 250.254 177C244.546 177 241.692 181.105 241.692 189.313Z" fill="#020207"/>
<path d="M302.808 197.646C302.808 200.261 302.141 202.578 300.808 204.604C299.485 206.62 297.578 208.188 295.078 209.313C292.589 210.438 289.667 211 286.308 211C283.516 211 281.167 210.802 279.266 210.417C277.36 210.016 275.38 209.328 273.328 208.354V198.209C275.495 199.323 277.745 200.188 280.078 200.813C282.422 201.438 284.578 201.75 286.537 201.75C288.229 201.75 289.464 201.459 290.245 200.875C291.037 200.292 291.433 199.542 291.433 198.625C291.433 198.042 291.271 197.537 290.953 197.104C290.646 196.677 290.141 196.245 289.433 195.813C288.735 195.37 286.875 194.459 283.849 193.084C281.099 191.849 279.037 190.646 277.662 189.479C276.287 188.302 275.266 186.953 274.599 185.438C273.943 183.927 273.62 182.136 273.62 180.063C273.62 176.188 275.026 173.167 277.849 171C280.667 168.823 284.542 167.729 289.474 167.729C293.834 167.729 298.276 168.745 302.808 170.771L299.328 179.542C295.396 177.74 292 176.834 289.141 176.834C287.651 176.834 286.578 177.099 285.912 177.625C285.245 178.141 284.912 178.782 284.912 179.542C284.912 180.365 285.334 181.099 286.183 181.75C287.042 182.407 289.36 183.594 293.141 185.313C296.766 186.953 299.276 188.709 300.683 190.584C302.099 192.448 302.808 194.802 302.808 197.646Z" fill="#020207"/>
<path d="M188.058 37.4112C188.146 38.0951 188.023 38.7614 187.672 39.4103C187.339 40.0415 186.98 40.6027 186.585 41.0937C185.323 42.7596 184.025 44.3817 182.692 45.9687C181.377 47.5381 180.036 49.1514 178.659 50.8085C177.765 51.9834 177.169 53.1583 176.87 54.3508C176.59 55.5257 176.046 56.797 175.257 58.1736L169.085 70.6591C167.331 74.4995 165.656 78.331 164.069 82.1626C162.5 85.9767 160.93 89.7995 159.37 93.6311C158.598 95.5775 157.721 97.5503 156.739 99.5582C155.757 101.575 155.021 103.618 154.53 105.696C154.039 107.546 153.521 109.378 152.987 111.202C152.443 113.008 151.777 114.884 150.988 116.849C148.252 123.723 145.411 130.579 142.465 137.401C139.519 144.204 135.74 150.552 131.137 156.444C130.155 157.821 129.041 158.987 127.805 159.952C126.586 160.934 124.999 161.425 123.035 161.425C121.159 161.425 119.291 161.153 117.424 160.618C115.574 160.074 113.82 159.373 112.163 158.514C108.516 156.55 105.684 153.761 103.676 150.167C101.659 146.589 100.177 142.889 99.2217 139.084C98.2397 135.068 97.5734 130.974 97.2226 126.809C96.8719 122.627 96.8018 118.479 97.0122 114.358C97.0122 113.867 96.9508 112.912 96.8369 111.483C96.7404 110.062 96.644 108.519 96.5563 106.853C96.4686 105.196 96.4861 103.732 96.6264 102.469C96.7667 101.189 97.0824 100.435 97.5734 100.225C98.3625 99.944 98.985 100.181 99.4322 100.926C99.8706 101.654 100.186 102.487 100.379 103.416C100.563 104.328 100.712 105.029 100.835 105.52C101.326 109.755 101.861 113.902 102.448 117.971C103.027 122.039 103.86 126.09 104.938 130.106C105.517 132.166 106.148 134.244 106.832 136.348C107.534 138.453 108.279 140.487 109.077 142.451C109.568 143.827 110.217 145.371 111.041 147.08C111.883 148.808 113.04 150.061 114.513 150.833C115.986 151.622 117.327 151.648 118.546 150.903C119.782 150.175 120.94 149.053 122.018 147.536C123.088 146.011 124.017 144.45 124.789 142.837C125.578 141.223 126.174 139.97 126.578 139.084C130.506 131.228 133.987 123.214 137.029 115.025C140.063 106.844 143.105 98.6726 146.148 90.5097C148.971 82.6799 151.934 74.7888 155.021 66.8363C158.125 58.8926 161.939 51.3346 166.454 44.18C164.394 44.9779 162.36 45.6004 160.352 46.0388C158.335 46.4597 156.292 46.977 154.214 47.582C152.364 48.073 150.549 48.7393 148.778 49.581C147.024 50.4052 145.209 51.0541 143.342 51.5451C141.772 51.9484 139.765 52.4832 137.31 53.1583C134.855 53.8422 132.592 54.7278 130.541 55.8238C128.48 56.9023 127.156 58.3665 126.578 60.2078C126.174 61.5931 126.42 63.0135 127.314 64.4865C128.2 65.9595 129.033 67.2396 129.804 68.3093C130.102 68.7126 130.663 69.3089 131.488 70.098C132.329 70.8695 133.066 71.6587 133.697 72.4478C134.346 73.2193 134.434 73.9032 133.943 74.4819C133.82 74.5784 133.346 74.7976 132.505 75.1483C131.681 75.499 131.225 75.6744 131.137 75.6744C129.848 75.7708 128.472 75.3236 126.998 74.3416C125.525 73.3596 124.298 72.4302 123.316 71.5359L120.23 68.7652C119.546 68.2742 118.941 67.8095 118.406 67.3624C117.862 66.924 117.354 66.2576 116.863 65.3633C116.459 64.6882 116.135 64.0306 115.881 63.3993C115.644 62.7505 115.53 62.0841 115.53 61.4002C115.74 58.8575 116.74 57.0688 118.546 56.0342C120.37 55.0084 122.202 54.0001 124.052 53.0181C126.806 51.6415 129.804 50.5455 133.031 49.7213C136.275 48.8796 139.466 48.0203 142.605 47.126C143.587 46.8279 144.394 46.486 145.025 46.1089C145.674 45.7144 146.437 45.3198 147.305 44.9165C148.778 44.2414 150.321 43.7065 151.934 43.3032C153.565 42.9087 155.126 42.5141 156.599 42.1108C158.651 41.4356 160.711 40.8044 162.772 40.2169C164.823 39.6382 166.884 39.042 168.944 38.4282C169.83 38.1477 170.321 38.0337 170.417 38.0775C170.505 38.1301 170.891 37.8145 171.575 37.1306C172.066 36.736 172.46 36.2713 172.767 35.7277C173.065 35.1929 173.311 34.8159 173.504 34.6054C174.486 33.4393 176.099 32.7642 178.343 32.5713C180.606 32.3608 182.745 32.6327 184.762 33.3779C186.769 34.1057 187.865 35.4472 188.058 37.4112Z" fill="#08080E"/>
<path d="M233.493 104.503C233.703 106.169 233.212 107.835 232.02 109.518C230.845 111.184 229.968 112.701 229.389 114.078C228.407 116.235 227.373 118.339 226.303 120.391C225.225 122.451 224.093 124.459 222.901 126.423C221.516 128.58 220.113 130.719 218.692 132.841C217.29 134.945 215.755 136.98 214.098 138.944C212.809 140.601 211.257 142.311 209.433 144.064C207.627 145.835 205.593 146.922 203.331 147.326C200.876 147.72 198.684 147.08 196.773 145.397C194.879 143.731 193.528 141.828 192.739 139.68C190.986 135.358 190.495 130.965 191.266 126.493C192.055 122.03 193.09 117.69 194.353 113.482C194.353 113.482 194.353 113.219 194.353 112.675C194.353 112.14 194.405 111.623 194.528 111.132C193.827 112.21 193.002 113.368 192.073 114.604C191.161 115.823 190.354 116.971 189.653 118.041C188.759 119.426 187.943 120.803 187.198 122.179C186.47 123.538 185.629 124.906 184.673 126.283C184.462 126.563 183.665 127.528 182.288 129.159C180.929 130.772 179.386 132.517 177.659 134.384C175.949 136.234 174.362 137.734 172.889 138.873C171.416 139.996 170.478 140.259 170.083 139.68C170.083 139.68 170.372 139.531 170.96 139.224C171.565 138.926 171.81 138.724 171.696 138.628C169.846 139.917 167.786 140.206 165.524 139.505C166.015 139.812 166.208 139.961 166.12 139.961C165.042 140.048 164.033 139.671 163.104 138.803C162.166 137.918 161.385 136.892 160.754 135.717C160.123 134.525 159.649 133.534 159.351 132.736C158.764 130.684 158.501 128.554 158.544 126.353C158.597 124.161 158.808 122.022 159.211 119.935C159.982 115.639 161.245 111.272 162.999 106.853C164.77 102.434 166.892 98.4183 169.347 94.7884C170.048 93.9028 170.732 92.9997 171.416 92.0879C172.091 91.1585 172.924 90.3343 173.906 89.6329C174.485 89.1419 175.046 88.7824 175.589 88.5456C176.15 88.2914 176.764 87.9757 177.448 87.5987C178.518 86.6167 179.623 85.7925 180.745 85.1086C181.885 84.4072 183.244 84.0565 184.813 84.0565C187.268 84.0565 189.25 84.8193 190.775 86.3361C192.292 87.8617 193.485 89.703 194.353 91.8774C195.238 94.0344 195.931 96.0334 196.422 97.8747C197.588 96.314 199.026 94.8147 200.736 93.3855C202.463 91.9651 204.287 91.1322 206.207 90.8954C208.118 90.6412 209.96 91.6495 211.713 93.9116C213.186 95.6652 213.651 97.2609 213.116 98.6813C212.572 100.111 211.924 101.654 211.152 103.311C209.767 105.889 208.539 108.668 207.469 111.658C206.391 114.63 205.549 117.445 204.944 120.11C205.058 119.9 205.207 119.409 205.4 118.637C205.584 117.848 205.83 117.401 206.137 117.304C206.321 117.217 206.259 117.927 205.961 119.444C205.681 120.969 205.295 122.802 204.804 124.95C204.313 127.107 203.936 129.22 203.682 131.298C203.445 133.358 203.506 134.972 203.857 136.138C204.208 137.313 204.988 137.628 206.207 137.085C207.443 136.55 209.337 134.717 211.889 131.579C214.133 128.729 216.281 125.809 218.342 122.811C220.393 119.821 222.41 116.805 224.374 113.762C225.26 112.412 226.136 110.992 227.004 109.518C227.89 108.045 228.828 106.625 229.81 105.24C230.108 104.845 230.555 104.38 231.143 103.837C231.722 103.302 232.265 103.013 232.756 102.96C233.247 102.916 233.493 103.434 233.493 104.503ZM191.266 105.52C191.661 104.942 191.88 104.556 191.933 104.363C191.977 104.153 192.003 103.758 192.003 103.171C192.003 102.776 191.757 101.82 191.266 100.295C190.775 98.7778 190.354 97.296 190.004 95.8405C189.671 94.3675 189.6 93.5258 189.793 93.3154C189.907 93.2277 190.083 93.5521 190.319 94.2974C190.574 95.0251 190.819 95.7616 191.056 96.5069C191.284 97.2346 191.407 97.6467 191.407 97.7344C191.31 97.1557 191.135 96.2965 190.881 95.1742C190.644 94.0344 190.284 92.9647 189.793 91.9827C189.302 91.0007 188.618 90.5096 187.759 90.5096C186.163 90.5096 184.682 91.3075 183.305 92.8945C181.946 94.464 180.797 96.2263 179.868 98.1903C178.93 100.154 178.167 101.724 177.588 102.89C176.115 106.213 174.756 109.615 173.52 113.096C172.301 116.585 171.398 120.145 170.82 123.793C170.907 123.302 171.276 122.03 171.907 119.97C172.556 117.892 173.38 115.463 174.362 112.675C175.344 109.869 176.343 107.125 177.378 104.433C178.404 101.75 179.386 99.5231 180.324 97.7695C181.253 95.9984 181.972 95.104 182.463 95.104C182.06 95.2005 181.464 96.0334 180.675 97.5941C179.903 99.1636 179.044 101.128 178.114 103.486C177.176 105.827 176.264 108.203 175.379 110.606C174.485 113.017 173.748 115.13 173.169 116.954C172.582 118.76 172.24 119.856 172.152 120.25C172.056 120.654 171.81 121.583 171.416 123.056C171.012 124.512 170.793 125.923 170.749 127.3C170.697 128.685 171.012 129.527 171.696 129.825C172.187 129.921 172.854 129.632 173.695 128.948C174.537 128.247 175.318 127.431 176.045 126.493C176.791 125.564 177.255 124.95 177.448 124.669C180.298 121.232 182.937 117.708 185.374 114.078L189.232 108.607C189.513 108.116 189.828 107.607 190.179 107.063C190.53 106.529 190.889 106.011 191.266 105.52ZM194.668 112.745L196.001 109.203L195.265 110.255C195.142 110.448 195.019 110.913 194.879 111.658C194.738 112.386 194.668 112.745 194.668 112.745ZM192.459 103.626C192.853 103.232 192.853 102.741 192.459 102.153V103.626ZM214.799 67.4325C215.098 67.5289 214.852 68.0199 214.063 68.9055C213.291 69.7998 212.432 70.6854 211.503 71.5709C210.565 72.439 210.003 72.965 209.819 73.1492C208.741 74.4381 207.469 75.6393 205.996 76.7616C204.523 77.8838 203.138 78.936 201.858 79.918C201.577 80.1284 201.016 80.5055 200.175 81.0403C199.333 81.5839 198.666 81.6541 198.175 81.2507C197.684 80.8562 197.588 80.0934 197.895 78.9711C198.193 77.8488 198.64 76.6826 199.228 75.4639C199.806 74.2276 200.192 73.4122 200.385 73.0089L205.856 63.6097C206.04 63.1187 206.11 62.7329 206.067 62.4523C206.014 62.1542 206.435 61.9438 207.329 61.821C207.697 61.7333 208.206 61.7684 208.837 61.9262C209.486 62.0665 209.863 62.1367 209.96 62.1367C210.749 62.3296 211.511 62.6189 212.239 63.0135C212.984 63.4168 213.607 63.9955 214.098 64.767C214.282 64.9775 214.422 65.4246 214.519 66.0998C214.607 66.7837 214.703 67.2221 214.799 67.4325Z" fill="#08080E"/>
<path d="M183.556 30.9088C183.643 31.5927 183.521 32.2591 183.17 32.9079C182.837 33.5392 182.477 34.1004 182.083 34.5914C180.82 36.2573 179.522 37.8793 178.19 39.4663C176.874 41.0358 175.533 42.6491 174.156 44.3062C173.262 45.4811 172.666 46.656 172.368 47.8485C172.087 49.0234 171.544 50.2947 170.754 51.6713L164.582 64.1568C162.828 67.9971 161.154 71.8287 159.567 75.6603C157.997 79.4743 156.428 83.2972 154.867 87.1287C154.095 89.0752 153.219 91.048 152.237 93.0558C151.255 95.0725 150.518 97.1154 150.027 99.1934C149.536 101.043 149.019 102.876 148.484 104.7C147.94 106.506 147.274 108.382 146.485 110.346C143.749 117.22 140.908 124.077 137.962 130.898C135.016 137.702 131.237 144.05 126.634 149.942C125.652 151.319 124.539 152.485 123.302 153.449C122.084 154.431 120.497 154.922 118.533 154.922C116.656 154.922 114.789 154.65 112.921 154.116C111.071 153.572 109.318 152.871 107.66 152.011C104.013 150.047 101.181 147.259 99.1731 143.664C97.1565 140.087 95.6747 136.387 94.719 132.582C93.737 128.566 93.0707 124.471 92.72 120.307C92.3692 116.124 92.2991 111.977 92.5095 107.856C92.5095 107.365 92.4481 106.409 92.3342 104.98C92.2377 103.56 92.1413 102.017 92.0536 100.351C91.9659 98.6936 91.9834 97.2294 92.1237 95.9668C92.264 94.6867 92.5797 93.9326 93.0707 93.7222C93.8598 93.4416 94.4823 93.6784 94.9295 94.4236C95.3679 95.1514 95.6835 95.9843 95.8764 96.9137C96.0605 97.8256 96.2096 98.527 96.3323 99.018C96.8233 103.253 97.3582 107.4 97.9456 111.468C98.5243 115.537 99.3573 119.588 100.436 123.603C101.014 125.664 101.646 127.742 102.33 129.846C103.031 131.95 103.776 133.984 104.574 135.949C105.065 137.325 105.714 138.868 106.538 140.578C107.38 142.305 108.537 143.559 110.01 144.331C111.483 145.12 112.825 145.146 114.044 144.401C115.28 143.673 116.437 142.551 117.516 141.034C118.585 139.508 119.515 137.948 120.286 136.334C121.075 134.721 121.672 133.467 122.075 132.582C126.003 124.726 129.484 116.712 132.526 108.522C135.56 100.342 138.602 92.1703 141.645 84.0074C144.468 76.1776 147.432 68.2865 150.518 60.334C153.622 52.3902 157.436 44.8323 161.951 37.6777C159.891 38.4756 157.857 39.0981 155.849 39.5365C153.832 39.9573 151.789 40.4746 149.711 41.0796C147.861 41.5706 146.046 42.237 144.275 43.0787C142.522 43.9029 140.707 44.5517 138.839 45.0427C137.27 45.4461 135.262 45.9809 132.807 46.656C130.352 47.3399 128.09 48.2255 126.038 49.3215C123.978 50.3999 122.654 51.8642 122.075 53.7054C121.672 55.0908 121.917 56.5112 122.811 57.9842C123.697 59.4572 124.53 60.7373 125.302 61.807C125.6 62.2103 126.161 62.8065 126.985 63.5956C127.827 64.3672 128.563 65.1563 129.194 65.9454C129.843 66.717 129.931 67.4009 129.44 67.9796C129.317 68.076 128.844 68.2952 128.002 68.646C127.178 68.9967 126.722 69.172 126.634 69.172C125.345 69.2685 123.969 68.8213 122.496 67.8393C121.023 66.8573 119.795 65.9279 118.813 65.0336L115.727 62.2629C115.043 61.7719 114.438 61.3072 113.903 60.8601C113.36 60.4217 112.851 59.7553 112.36 58.861C111.957 58.1858 111.632 57.5282 111.378 56.897C111.141 56.2481 111.027 55.5818 111.027 54.8979C111.238 52.3552 112.237 50.5665 114.044 49.5319C115.867 48.5061 117.7 47.4977 119.55 46.5157C122.303 45.1392 125.302 44.0432 128.528 43.219C131.772 42.3773 134.964 41.518 138.103 40.6237C139.085 40.3256 139.891 39.9836 140.523 39.6066C141.171 39.2121 141.934 38.8175 142.802 38.4142C144.275 37.7391 145.818 37.2042 147.432 36.8009C149.063 36.4063 150.623 36.0118 152.096 35.6085C154.148 34.9333 156.208 34.302 158.269 33.7146C160.321 33.1359 162.381 32.5397 164.442 31.9259C165.327 31.6454 165.818 31.5314 165.915 31.5752C166.002 31.6278 166.388 31.3122 167.072 30.6283C167.563 30.2337 167.957 29.769 168.264 29.2254C168.562 28.6906 168.808 28.3135 169.001 28.1031C169.983 26.937 171.596 26.2619 173.841 26.069C176.103 25.8585 178.242 26.1303 180.259 26.8756C182.267 27.6033 183.363 28.9448 183.556 30.9088Z" fill="#FF9933"/>
<path d="M226.99 98.0009C227.201 99.6668 226.71 101.333 225.517 103.016C224.342 104.682 223.465 106.199 222.887 107.575C221.905 109.732 220.87 111.837 219.801 113.888C218.722 115.949 217.591 117.957 216.399 119.921C215.013 122.078 213.61 124.217 212.19 126.339C210.787 128.443 209.253 130.477 207.596 132.441C206.307 134.098 204.755 135.808 202.931 137.562C201.125 139.333 199.091 140.42 196.829 140.823C194.374 141.218 192.182 140.578 190.27 138.895C188.376 137.229 187.026 135.326 186.237 133.178C184.483 128.855 183.992 124.463 184.764 119.991C185.553 115.528 186.588 111.188 187.85 106.979C187.85 106.979 187.85 106.716 187.85 106.173C187.85 105.638 187.903 105.12 188.026 104.629C187.324 105.708 186.5 106.865 185.571 108.102C184.659 109.32 183.852 110.469 183.151 111.539C182.256 112.924 181.441 114.3 180.696 115.677C179.968 117.036 179.126 118.404 178.17 119.78C177.96 120.061 177.162 121.025 175.786 122.656C174.427 124.27 172.883 126.014 171.156 127.882C169.446 129.732 167.859 131.231 166.386 132.371C164.913 133.493 163.975 133.757 163.581 133.178C163.581 133.178 163.87 133.029 164.457 132.722C165.062 132.424 165.308 132.222 165.194 132.126C163.344 133.415 161.283 133.704 159.021 133.002C159.512 133.309 159.705 133.458 159.618 133.458C158.539 133.546 157.531 133.169 156.601 132.301C155.663 131.415 154.883 130.39 154.252 129.215C153.62 128.022 153.147 127.032 152.849 126.234C152.261 124.182 151.998 122.051 152.042 119.851C152.095 117.659 152.305 115.519 152.708 113.432C153.48 109.136 154.743 104.77 156.496 100.351C158.267 95.9317 160.389 91.916 162.844 88.2861C163.546 87.4005 164.229 86.4974 164.913 85.5856C165.588 84.6562 166.421 83.832 167.403 83.1305C167.982 82.6395 168.543 82.2801 169.087 82.0433C169.648 81.789 170.262 81.4734 170.946 81.0964C172.015 80.1144 173.12 79.2902 174.242 78.6063C175.382 77.9049 176.741 77.5541 178.311 77.5541C180.766 77.5541 182.747 78.317 184.273 79.8338C185.79 81.3594 186.982 83.2007 187.85 85.3751C188.736 87.532 189.428 89.5311 189.919 91.3724C191.086 89.8117 192.524 88.3124 194.233 86.8832C195.961 85.4628 197.784 84.6299 199.704 84.3931C201.616 84.1388 203.457 85.1472 205.211 87.4093C206.684 89.1629 207.148 90.7586 206.614 92.179C206.07 93.6082 205.421 95.1514 204.65 96.8085C203.264 99.3863 202.037 102.166 200.967 105.156C199.889 108.128 199.047 110.942 198.442 113.608C198.556 113.397 198.705 112.906 198.898 112.135C199.082 111.346 199.327 110.899 199.634 110.802C199.818 110.714 199.757 111.425 199.459 112.941C199.178 114.467 198.793 116.3 198.302 118.448C197.811 120.605 197.434 122.718 197.179 124.796C196.943 126.856 197.004 128.469 197.355 129.636C197.705 130.81 198.486 131.126 199.704 130.583C200.941 130.048 202.835 128.215 205.386 125.076C207.631 122.227 209.779 119.307 211.839 116.308C213.891 113.318 215.908 110.302 217.872 107.26C218.757 105.91 219.634 104.489 220.502 103.016C221.388 101.543 222.326 100.123 223.308 98.7374C223.606 98.3429 224.053 97.8782 224.64 97.3346C225.219 96.7997 225.763 96.5104 226.254 96.4578C226.745 96.4139 226.99 96.9312 226.99 98.0009ZM184.764 99.018C185.158 98.4393 185.378 98.0535 185.43 97.8606C185.474 97.6502 185.5 97.2557 185.5 96.6682C185.5 96.2736 185.255 95.3179 184.764 93.7923C184.273 92.2755 183.852 90.7937 183.501 89.3382C183.168 87.8652 183.098 87.0235 183.291 86.8131C183.405 86.7254 183.58 87.0498 183.817 87.7951C184.071 88.5228 184.317 89.2593 184.553 90.0046C184.781 90.7323 184.904 91.1444 184.904 91.2321C184.808 90.6534 184.632 89.7942 184.378 88.6719C184.141 87.532 183.782 86.4623 183.291 85.4803C182.8 84.4983 182.116 84.0073 181.257 84.0073C179.661 84.0073 178.179 84.8052 176.803 86.3922C175.444 87.9617 174.295 89.724 173.366 91.688C172.427 93.652 171.665 95.2215 171.086 96.3876C169.613 99.7107 168.254 103.113 167.018 106.593C165.799 110.083 164.896 113.643 164.317 117.29C164.405 116.799 164.773 115.528 165.404 113.468C166.053 111.39 166.877 108.961 167.859 106.173C168.841 103.367 169.841 100.623 170.876 97.9308C171.901 95.2478 172.883 93.0207 173.822 91.2672C174.751 89.496 175.47 88.6017 175.961 88.6017C175.558 88.6982 174.961 89.5311 174.172 91.0918C173.401 92.6613 172.541 94.6253 171.612 96.9838C170.674 99.3249 169.762 101.701 168.876 104.103C167.982 106.515 167.246 108.628 166.667 110.451C166.079 112.258 165.738 113.354 165.65 113.748C165.553 114.151 165.308 115.081 164.913 116.554C164.51 118.009 164.291 119.421 164.247 120.798C164.194 122.183 164.51 123.025 165.194 123.323C165.685 123.419 166.351 123.13 167.193 122.446C168.035 121.744 168.815 120.929 169.543 119.991C170.288 119.061 170.753 118.448 170.946 118.167C173.795 114.73 176.434 111.205 178.872 107.575L182.73 102.104C183.01 101.613 183.326 101.105 183.677 100.561C184.027 100.026 184.387 99.509 184.764 99.018ZM188.166 106.243L189.499 102.701L188.762 103.753C188.639 103.946 188.517 104.41 188.376 105.156C188.236 105.883 188.166 106.243 188.166 106.243ZM185.956 97.1241C186.351 96.7296 186.351 96.2386 185.956 95.6511V97.1241ZM208.297 60.9302C208.595 61.0266 208.35 61.5176 207.561 62.4032C206.789 63.2975 205.93 64.1831 205 65.0686C204.062 65.9367 203.501 66.4627 203.317 66.6469C202.238 67.9357 200.967 69.1369 199.494 70.2592C198.021 71.3815 196.636 72.4337 195.356 73.4157C195.075 73.6261 194.514 74.0031 193.672 74.538C192.83 75.0816 192.164 75.1517 191.673 74.7484C191.182 74.3539 191.086 73.591 191.392 72.4687C191.691 71.3465 192.138 70.1803 192.725 68.9616C193.304 67.7253 193.69 66.9099 193.883 66.5066L199.354 57.1074C199.538 56.6164 199.608 56.2306 199.564 55.95C199.512 55.6519 199.932 55.4415 200.827 55.3187C201.195 55.231 201.704 55.2661 202.335 55.4239C202.984 55.5642 203.361 55.6343 203.457 55.6343C204.246 55.8272 205.009 56.1166 205.737 56.5111C206.482 56.9145 207.105 57.4931 207.596 58.2647C207.78 58.4752 207.92 58.9223 208.016 59.5974C208.104 60.2813 208.201 60.7197 208.297 60.9302Z" fill="#FF9933"/>
</svg>
